<?xml version="1.0" encoding="iso-8859-1"?>
<!-- Generator: Adobe Illustrator 21.0.0, SVG Export Plug-In . SVG Version: 6.00 Build 0)  -->
<svg xmlns="http://www.w3.org/2000/svg" xmlns:xlink="http://www.w3.org/1999/xlink" version="1.1" id="Capa_1" x="0px" y="0px" viewBox="0 0 512 512" style="enable-background:new 0 0 512 512;" xml:space="preserve" width="512" height="512">
<g>
	<g>
		<path style="fill:#E3E6ED;" d="M104.232,347.088c0,39.048,31.655,70.703,70.703,70.703H338.02    c39.048,0,70.703-31.655,70.703-70.703V164.912c0-39.048-31.655-70.703-70.703-70.703H174.934    c-39.048,0-70.703,31.655-70.703,70.703V347.088z"/>
		<path style="fill:#D3D5E0;" d="M338.02,94.209h-33.996c39.048,0,70.703,31.655,70.703,70.703v182.176    c0,39.048-31.655,70.703-70.703,70.703h33.996c39.048,0,70.703-31.655,70.703-70.703V164.912    C408.723,125.864,377.068,94.209,338.02,94.209z"/>
		<g>
			<path style="fill:#5E6478;" d="M428.34,230.705h-20.617v-36.272h20.617c9.198,0,16.654,7.456,16.654,16.654v2.963     C444.995,223.249,437.538,230.705,428.34,230.705z"/>
			<path style="fill:#5E6478;" d="M428.34,317.566h-20.617v-36.272h20.617c9.198,0,16.654,7.456,16.654,16.654v2.963     C444.995,310.11,437.538,317.566,428.34,317.566z"/>
		</g>
		<path style="fill:#5E6478;" d="M83.66,237.864h21.617v36.272H83.66c-9.198,0-16.654-7.456-16.654-16.654v-2.963    C67.005,245.321,74.462,237.864,83.66,237.864z"/>
		<path style="fill:#5E6478;" d="M318.283,381.042h17.552c21.013,0,38.048-17.035,38.048-38.048V169.006    c0-21.013-17.035-38.048-38.048-38.048H177.119c-21.013,0-38.048,17.035-38.048,38.048v173.989    c0,21.013,17.034,38.048,38.048,38.048h106.924H318.283z"/>
		<g>
			<path style="fill:#F4F4FF;" d="M373.883,309.027h-64.718c-3.2,0-6.069-1.973-7.214-4.961l-12.284-32.042l-25.43,63.249     c-1.181,2.938-4.028,4.844-7.167,4.844c-0.135,0-0.271-0.004-0.408-0.011c-3.298-0.174-6.122-2.425-7.026-5.602l-21.228-74.624     l-16.183,44.082c-1.117,3.042-4.013,5.064-7.253,5.064h-65.901v-15.453h60.507l22.509-61.316     c1.153-3.141,4.202-5.199,7.541-5.058c3.344,0.125,6.228,2.388,7.143,5.607l21.55,75.754l24.348-60.557     c1.186-2.948,4.07-4.918,7.231-4.844c3.177,0.026,6.015,1.993,7.152,4.96l17.425,45.454h59.405V309.027z"/>
		</g>
		<path style="fill:#FF7373;" d="M312.199,175.975c8.241-12.209,21.927-9.247,22.893,4.273c0.61,8.547-10.378,20.146-22.893,25.64    h-0.281c-12.515-5.494-23.503-17.093-22.893-25.64c0.966-13.52,14.651-16.483,22.893-4.273"/>
		<path style="fill:#E3E6ED;" d="M224,169.344h-41c-9.674,0-9.674,15,0,15h41C233.674,184.344,233.674,169.344,224,169.344z"/>
	</g>
	<polygon style="fill:#FF7373;" points="342.02,94.747 169.98,94.747 203.976,0 308.024,0  "/>
	<polygon style="fill:#E05E5E;" points="308.024,0 274.028,0 308.024,94.747 342.02,94.747  "/>
	<polygon style="fill:#FF7373;" points="169.98,417.253 342.02,417.253 308.024,512 203.976,512  "/>
	<polygon style="fill:#E05E5E;" points="308.024,417.253 274.028,512 308.024,512 342.02,417.253  "/>
	<g>
		<g>
			<path style="fill:#E3E6ED;" d="M284.33,63.356h-56.66c-4.267,0-7.726-3.459-7.726-7.726s3.459-7.726,7.726-7.726h56.66     c4.268,0,7.726,3.459,7.726,7.726S288.598,63.356,284.33,63.356z"/>
		</g>
		<g>
			<path style="fill:#E3E6ED;" d="M284.33,464.097h-56.66c-4.267,0-7.726-3.459-7.726-7.726c0-4.267,3.459-7.726,7.726-7.726h56.66     c4.268,0,7.726,3.459,7.726,7.726C292.056,460.637,288.598,464.097,284.33,464.097z"/>
		</g>
	</g>
</g>















</svg>
